<svg width="534" height="200" viewBox="0 0 534 200" version="1.1" xmlns="http://www.w3.org/2000/svg" xmlns:xlink="http://www.w3.org/1999/xlink">
<title>rays</title>
<desc>Created using Figma</desc>
<g id="Canvas" transform="translate(-49 136)">
<g id="rays" opacity="0.9">
<g id="rays">
<g id="Group 4.1">
<g id="Rectangle 2">
<use xlink:href="#path0_fill" transform="matrix(1 6.42663e-16 8.52722e-16 -1 118.126 63.0081)" fill="url(#paint0_linear)"/>
</g>
<g id="Rectangle 2.2">
<use xlink:href="#path1_fill" transform="matrix(1 6.42796e-16 8.46807e-16 -1 71.7045 23.2739)" fill="url(#paint1_linear)"/>
</g>
<g id="Rectangle 2.4">
<use xlink:href="#path2_fill" transform="matrix(1 6.42663e-16 8.52722e-16 -1 173.27 -16.4604)" fill="url(#paint2_linear)"/>
</g>
<g id="Rectangle 2.5">
<use xlink:href="#path3_fill" transform="matrix(1 6.42663e-16 -8.52722e-16 1 259.357 -115.796)" fill="url(#paint3_linear)"/>
</g>
<g id="Rectangle 2.7">
<use xlink:href="#path4_fill" transform="matrix(1 6.42663e-16 -8.52722e-16 1 157.129 -76.0618)" fill="url(#paint4_linear)"/>
</g>
</g>
</g>
<g id="rays">
<g id="Group 4.1">
<g id="Rectangle 2">
<use xlink:href="#path0_fill" transform="matrix(1 -7.53685e-16 9.63744e-16 1 118.126 -135.663)" fill="url(#paint5_linear)"/>
</g>
<g id="Rectangle 2.2">
<use xlink:href="#path1_fill" transform="matrix(1 -7.53685e-16 9.63744e-16 1 71.7045 -95.9289)" fill="url(#paint6_linear)"/>
</g>
<g id="Rectangle 2.4">
<use xlink:href="#path5_fill" transform="matrix(1 -7.80722e-16 9.29884e-16 1 49.5208 -56.1946)" fill="url(#paint7_linear)"/>
</g>
<g id="Rectangle 2.5">
<use xlink:href="#path6_fill" transform="matrix(1 -7.53685e-16 -9.63744e-16 -1 139.718 43.141)" fill="url(#paint8_linear)"/>
</g>
<g id="Rectangle 2.7">
<use xlink:href="#path7_fill" transform="matrix(1 -7.53685e-16 -9.63744e-16 -1 232.189 3.40677)" fill="url(#paint9_linear)"/>
</g>
</g>
</g>
</g>
</g>
<defs>
<linearGradient id="paint0_linear" x1="0" y1="0" x2="1" y2="0" gradientUnits="userSpaceOnUse" gradientTransform="matrix(461.371 -0.0683178 1.59858 21944.8 0.203196 -10963.6)">
<stop offset="0.458564" stop-color="#E2E3FC"/>
<stop offset="1" stop-color="#F8F9FF" stop-opacity="0.53"/>
</linearGradient>
<linearGradient id="paint1_linear" x1="0" y1="0" x2="1" y2="0" gradientUnits="userSpaceOnUse" gradientTransform="matrix(507.442 -0.0683178 1.7582 21944.8 0.223487 -10963.6)">
<stop offset="0.458564" stop-color="#E2E3FC"/>
<stop offset="1" stop-color="#F8F9FF" stop-opacity="0.53"/>
</linearGradient>
<linearGradient id="paint2_linear" x1="0" y1="0" x2="1" y2="0" gradientUnits="userSpaceOnUse" gradientTransform="matrix(406.642 -0.0683178 1.40895 21944.8 0.179092 -10963.6)">
<stop offset="0.458564" stop-color="#E2E3FC"/>
<stop offset="1" stop-color="#F8F9FF" stop-opacity="0.53"/>
</linearGradient>
<linearGradient id="paint3_linear" x1="0" y1="0" x2="1" y2="0" gradientUnits="userSpaceOnUse" gradientTransform="matrix(321.204 -0.0683178 1.11292 21944.8 0.141464 -10963.6)">
<stop offset="0.458564" stop-color="#E2E3FC"/>
<stop offset="1" stop-color="#F8F9FF" stop-opacity="0.53"/>
</linearGradient>
<linearGradient id="paint4_linear" x1="0" y1="0" x2="1" y2="0" gradientUnits="userSpaceOnUse" gradientTransform="matrix(422.662 -0.0683178 1.46445 21944.8 0.186148 -10963.6)">
<stop offset="0.458564" stop-color="#E2E3FC"/>
<stop offset="1" stop-color="#F8F9FF" stop-opacity="0.53"/>
</linearGradient>
<linearGradient id="paint5_linear" x1="0" y1="0" x2="1" y2="0" gradientUnits="userSpaceOnUse" gradientTransform="matrix(461.371 -0.0683178 1.59858 21944.8 0.203196 -10963.6)">
<stop offset="0" stop-color="#707CFA"/>
<stop offset="0.149171" stop-color="#9DA4F7" stop-opacity="0.96198"/>
<stop offset="0.248619" stop-color="#A8AEF5" stop-opacity="0.90495"/>
<stop offset="0.624309" stop-color="#D4D7FB" stop-opacity="0.846853"/>
<stop offset="0.718232" stop-color="#E2E4FC" stop-opacity="0.828833"/>
<stop offset="0.850829" stop-color="#F8F9FF" stop-opacity="0.8"/>
</linearGradient>
<linearGradient id="paint6_linear" x1="0" y1="0" x2="1" y2="0" gradientUnits="userSpaceOnUse" gradientTransform="matrix(507.442 -0.0683178 1.7582 21944.8 0.223487 -10963.6)">
<stop offset="0" stop-color="#707CFA"/>
<stop offset="0.149171" stop-color="#9DA4F7" stop-opacity="0.96198"/>
<stop offset="0.248619" stop-color="#A8AEF5" stop-opacity="0.90495"/>
<stop offset="0.624309" stop-color="#D4D7FB" stop-opacity="0.846853"/>
<stop offset="0.718232" stop-color="#E2E4FC" stop-opacity="0.828833"/>
<stop offset="0.850829" stop-color="#F8F9FF" stop-opacity="0.8"/>
</linearGradient>
<linearGradient id="paint7_linear" x1="0" y1="0" x2="1" y2="0" gradientUnits="userSpaceOnUse" gradientTransform="matrix(529.459 -0.0683178 1.83449 21944.8 0.233183 -10963.6)">
<stop offset="0" stop-color="#707CFA"/>
<stop offset="0.149171" stop-color="#9DA4F7" stop-opacity="0.96198"/>
<stop offset="0.248619" stop-color="#A8AEF5" stop-opacity="0.90495"/>
<stop offset="0.624309" stop-color="#D4D7FB" stop-opacity="0.846853"/>
<stop offset="0.718232" stop-color="#E2E4FC" stop-opacity="0.828833"/>
<stop offset="0.850829" stop-color="#F8F9FF" stop-opacity="0.8"/>
</linearGradient>
<linearGradient id="paint8_linear" x1="0" y1="0" x2="1" y2="0" gradientUnits="userSpaceOnUse" gradientTransform="matrix(439.942 -0.0683178 1.52433 21944.8 0.193758 -10963.6)">
<stop offset="0" stop-color="#707CFA"/>
<stop offset="0.149171" stop-color="#9DA4F7" stop-opacity="0.96198"/>
<stop offset="0.248619" stop-color="#A8AEF5" stop-opacity="0.90495"/>
<stop offset="0.624309" stop-color="#D4D7FB" stop-opacity="0.846853"/>
<stop offset="0.718232" stop-color="#E2E4FC" stop-opacity="0.828833"/>
<stop offset="0.850829" stop-color="#F8F9FF" stop-opacity="0.8"/>
</linearGradient>
<linearGradient id="paint9_linear" x1="0" y1="0" x2="1" y2="0" gradientUnits="userSpaceOnUse" gradientTransform="matrix(348.168 -0.0683178 1.20634 21944.8 0.153339 -10963.6)">
<stop offset="0" stop-color="#707CFA"/>
<stop offset="0.149171" stop-color="#9DA4F7" stop-opacity="0.96198"/>
<stop offset="0.248619" stop-color="#A8AEF5" stop-opacity="0.90495"/>
<stop offset="0.624309" stop-color="#D4D7FB" stop-opacity="0.846853"/>
<stop offset="0.718232" stop-color="#E2E4FC" stop-opacity="0.828833"/>
<stop offset="0.850829" stop-color="#F8F9FF" stop-opacity="0.8"/>
</linearGradient>
<path id="path0_fill" d="M 0 9.93356C 0 4.44741 4.44741 0 9.93356 0L 464.874 0L 464.874 19.8671L 9.93356 19.8671C 4.44741 19.8671 0 15.4197 0 9.93356Z"/>
<path id="path1_fill" d="M 0 9.93356C 0 4.44741 4.44741 0 9.93356 0L 511.295 0L 511.295 19.8671L 9.93356 19.8671C 4.44741 19.8671 0 15.4197 0 9.93356Z"/>
<path id="path2_fill" d="M 0 9.93356C 0 4.44741 4.44741 0 9.93356 0L 409.73 0L 409.73 19.8671L 9.93356 19.8671C 4.44741 19.8671 0 15.4197 0 9.93356Z"/>
<path id="path3_fill" d="M 0 9.93356C 0 4.44741 4.44741 0 9.93356 0L 323.643 0L 323.643 19.8671L 9.93356 19.8671C 4.44741 19.8671 0 15.4197 0 9.93356Z"/>
<path id="path4_fill" d="M 0 9.93356C 0 4.44741 4.44741 0 9.93356 0L 425.871 0L 425.871 19.8671L 9.93356 19.8671C 4.44741 19.8671 0 15.4197 0 9.93356Z"/>
<path id="path5_fill" d="M 0 9.93356C 0 4.44741 4.44741 0 9.93356 0L 533.479 0L 533.479 19.8671L 9.93356 19.8671C 4.44741 19.8671 0 15.4197 0 9.93356Z"/>
<path id="path6_fill" d="M 0 9.93356C 0 4.44741 4.44741 0 9.93356 0L 443.282 0L 443.282 19.8671L 9.93356 19.8671C 4.44741 19.8671 0 15.4197 0 9.93356Z"/>
<path id="path7_fill" d="M 0 9.93356C 0 4.44741 4.44741 0 9.93356 0L 350.811 0L 350.811 19.8671L 9.93356 19.8671C 4.44741 19.8671 0 15.4197 0 9.93356Z"/>
</defs>
</svg>
